<mxfile host="app.diagrams.net" modified="2022-08-26T09:03:34.536Z" agent="5.0 (Macintosh; Intel Mac OS X 10_15_7) AppleWebKit/537.36 (KHTML, like Gecko) Chrome/104.0.0.0 Safari/537.36" etag="--ljvBQ3OCqA4M8UTlLO" version="20.2.6" type="github">
  <diagram id="hTXJk0F0XFaQzotUVWN9" name="第 1 页">
    <mxGraphModel dx="1426" dy="623" grid="1" gridSize="10" guides="1" tooltips="1" connect="1" arrows="1" fold="1" page="1" pageScale="1" pageWidth="827" pageHeight="1169" math="0" shadow="0">
      <root>
        <mxCell id="0" />
        <mxCell id="1" parent="0" />
        <mxCell id="iFCGvaFhq44r1LsD8NiD-3" style="edgeStyle=orthogonalEdgeStyle;rounded=0;orthogonalLoop=1;jettySize=auto;html=1;fontSize=24;fontColor=#000000;strokeColor=#3399FF;" edge="1" parent="1" source="iFCGvaFhq44r1LsD8NiD-1" target="iFCGvaFhq44r1LsD8NiD-4">
          <mxGeometry relative="1" as="geometry">
            <mxPoint x="400" y="220" as="targetPoint" />
          </mxGeometry>
        </mxCell>
        <mxCell id="iFCGvaFhq44r1LsD8NiD-1" value="&lt;font style=&quot;font-size: 24px;&quot;&gt;开始&lt;/font&gt;" style="rounded=1;whiteSpace=wrap;html=1;strokeColor=#97D077;" vertex="1" parent="1">
          <mxGeometry x="50" y="225" width="120" height="40" as="geometry" />
        </mxCell>
        <mxCell id="iFCGvaFhq44r1LsD8NiD-5" style="edgeStyle=orthogonalEdgeStyle;rounded=0;orthogonalLoop=1;jettySize=auto;html=1;fontSize=24;fontColor=#000000;strokeColor=#3399FF;" edge="1" parent="1" source="iFCGvaFhq44r1LsD8NiD-4" target="iFCGvaFhq44r1LsD8NiD-6">
          <mxGeometry relative="1" as="geometry">
            <mxPoint x="400" y="340" as="targetPoint" />
          </mxGeometry>
        </mxCell>
        <mxCell id="iFCGvaFhq44r1LsD8NiD-4" value="将产品添加至产品列表中" style="rounded=0;whiteSpace=wrap;html=1;fontSize=24;fontColor=#000000;strokeColor=#97D077;" vertex="1" parent="1">
          <mxGeometry x="220" y="210" width="180" height="70" as="geometry" />
        </mxCell>
        <mxCell id="iFCGvaFhq44r1LsD8NiD-7" style="edgeStyle=orthogonalEdgeStyle;rounded=0;orthogonalLoop=1;jettySize=auto;html=1;fontSize=24;fontColor=#000000;strokeColor=#3399FF;" edge="1" parent="1" source="iFCGvaFhq44r1LsD8NiD-6" target="iFCGvaFhq44r1LsD8NiD-8">
          <mxGeometry relative="1" as="geometry">
            <mxPoint x="400" y="460" as="targetPoint" />
          </mxGeometry>
        </mxCell>
        <mxCell id="iFCGvaFhq44r1LsD8NiD-6" value="点击获取链接" style="rounded=0;whiteSpace=wrap;html=1;fontSize=24;fontColor=#000000;strokeColor=#97D077;" vertex="1" parent="1">
          <mxGeometry x="490" y="215" width="120" height="60" as="geometry" />
        </mxCell>
        <mxCell id="iFCGvaFhq44r1LsD8NiD-18" style="edgeStyle=orthogonalEdgeStyle;rounded=0;orthogonalLoop=1;jettySize=auto;html=1;fontSize=24;fontColor=#000000;strokeColor=#3399FF;" edge="1" parent="1" source="iFCGvaFhq44r1LsD8NiD-8" target="iFCGvaFhq44r1LsD8NiD-10">
          <mxGeometry relative="1" as="geometry" />
        </mxCell>
        <mxCell id="iFCGvaFhq44r1LsD8NiD-8" value="用户输入获取数量" style="shape=parallelogram;perimeter=parallelogramPerimeter;whiteSpace=wrap;html=1;fixedSize=1;fontSize=24;fontColor=#000000;strokeColor=#97D077;" vertex="1" parent="1">
          <mxGeometry x="700" y="215" width="120" height="60" as="geometry" />
        </mxCell>
        <mxCell id="iFCGvaFhq44r1LsD8NiD-11" style="edgeStyle=orthogonalEdgeStyle;rounded=0;orthogonalLoop=1;jettySize=auto;html=1;fontSize=24;fontColor=#000000;strokeColor=#3399FF;" edge="1" parent="1" source="iFCGvaFhq44r1LsD8NiD-10" target="iFCGvaFhq44r1LsD8NiD-12">
          <mxGeometry relative="1" as="geometry">
            <mxPoint x="400" y="680" as="targetPoint" />
          </mxGeometry>
        </mxCell>
        <mxCell id="iFCGvaFhq44r1LsD8NiD-10" value="服务端调用generateLink()方法生成链接" style="rounded=0;whiteSpace=wrap;html=1;fontSize=24;fontColor=#000000;strokeColor=#97D077;" vertex="1" parent="1">
          <mxGeometry x="670" y="350" width="180" height="100" as="geometry" />
        </mxCell>
        <mxCell id="iFCGvaFhq44r1LsD8NiD-19" style="edgeStyle=orthogonalEdgeStyle;rounded=0;orthogonalLoop=1;jettySize=auto;html=1;fontSize=24;fontColor=#000000;strokeColor=#3399FF;" edge="1" parent="1" source="iFCGvaFhq44r1LsD8NiD-12" target="iFCGvaFhq44r1LsD8NiD-20">
          <mxGeometry relative="1" as="geometry">
            <mxPoint x="380" y="400" as="targetPoint" />
          </mxGeometry>
        </mxCell>
        <mxCell id="iFCGvaFhq44r1LsD8NiD-12" value="添加至product_link表中" style="rounded=0;whiteSpace=wrap;html=1;fontSize=24;fontColor=#000000;strokeColor=#97D077;" vertex="1" parent="1">
          <mxGeometry x="450" y="350" width="130" height="100" as="geometry" />
        </mxCell>
        <mxCell id="iFCGvaFhq44r1LsD8NiD-21" style="edgeStyle=orthogonalEdgeStyle;rounded=0;orthogonalLoop=1;jettySize=auto;html=1;fontSize=24;fontColor=#000000;strokeColor=#3399FF;" edge="1" parent="1" source="iFCGvaFhq44r1LsD8NiD-20" target="iFCGvaFhq44r1LsD8NiD-22">
          <mxGeometry relative="1" as="geometry">
            <mxPoint x="170" y="400" as="targetPoint" />
          </mxGeometry>
        </mxCell>
        <mxCell id="iFCGvaFhq44r1LsD8NiD-20" value="用户推广" style="rounded=0;whiteSpace=wrap;html=1;fontSize=24;fontColor=#000000;strokeColor=#97D077;" vertex="1" parent="1">
          <mxGeometry x="240" y="380" width="120" height="40" as="geometry" />
        </mxCell>
        <mxCell id="iFCGvaFhq44r1LsD8NiD-22" value="结束" style="rounded=1;whiteSpace=wrap;html=1;fontSize=24;fontColor=#000000;strokeColor=#97D077;" vertex="1" parent="1">
          <mxGeometry x="50" y="380" width="120" height="40" as="geometry" />
        </mxCell>
      </root>
    </mxGraphModel>
  </diagram>
</mxfile>
